<?xml version="1.0" encoding="UTF-8" standalone="no"?><!DOCTYPE svg PUBLIC "-//W3C//DTD SVG 1.1//EN" "http://www.w3.org/Graphics/SVG/1.1/DTD/svg11.dtd"><svg width="100%" height="100%" viewBox="0 0 8 8" version="1.1" xmlns="http://www.w3.org/2000/svg" xmlns:xlink="http://www.w3.org/1999/xlink" xml:space="preserve" xmlns:serif="http://www.serif.com/" style="fill-rule:evenodd;clip-rule:evenodd;stroke-linecap:round;stroke-linejoin:round;stroke-miterlimit:1.5;"><g id="layer1"><circle cx="4" cy="4" r="4" style="fill:#7c8c00;"/><path d="M4.861,2.245l0.318,-0.55c0.217,-0.375 0.698,-0.504 1.073,-0.287c0.374,0.216 0.504,0.694 0.29,1.069l-0.236,0.41c0.519,0.404 0.837,0.946 0.837,1.541c0,1.253 -1.408,2.27 -3.143,2.27c-1.735,-0 -3.143,-1.017 -3.143,-2.27c-0,-0.595 0.318,-1.137 0.837,-1.541l-0.236,-0.41c-0.214,-0.375 -0.084,-0.853 0.29,-1.069c0.375,-0.217 0.856,-0.088 1.073,0.287l0.318,0.55c0.274,-0.056 0.562,-0.086 0.861,-0.086c0.299,0 0.587,0.03 0.861,0.086Z" style="fill:#c6d57a;stroke:#060700;stroke-width:0.2px;"/><circle cx="2.067" cy="1.951" r="0.424" style="fill:#060700;"/><g><circle cx="1.994" cy="4.937" r="0.597" style="fill:#be3b65;"/><circle cx="1.95" cy="4.96" r="0.398" style="fill:#eda1ae;"/></g><g><circle cx="6.006" cy="4.937" r="0.597" style="fill:#be3b65;"/><circle cx="6.05" cy="4.96" r="0.398" style="fill:#eda1ae;"/></g><circle cx="5.933" cy="1.951" r="0.424" style="fill:#060700;"/><circle cx="1.901" cy="1.983" r="0.162" style="fill:#dadcd1;"/><circle cx="6.126" cy="1.983" r="0.162" style="fill:#dadcd1;"/><path d="M4,5.132c1,-0 1.127,-1.167 1.127,-1.167c-0.004,0.819 -0.507,1.483 -1.127,1.483c-0.622,0 -1.127,-0.669 -1.127,-1.493c0,-0 0.127,1.177 1.127,1.177Z" style="fill:#060700;"/><g><ellipse cx="3.617" cy="3.309" rx="0.23" ry="0.242" style="fill:#060700;"/><ellipse cx="4.383" cy="3.309" rx="0.23" ry="0.242" style="fill:#060700;"/></g><circle cx="-1" cy="6" r="0.5" style="fill:#dadcd1;"/></g></svg>