<?xml version="1.0" encoding="UTF-8" standalone="no"?><!DOCTYPE svg PUBLIC "-//W3C//DTD SVG 1.1//EN" "http://www.w3.org/Graphics/SVG/1.1/DTD/svg11.dtd"><svg width="100%" height="100%" viewBox="0 0 8 8" version="1.1" xmlns="http://www.w3.org/2000/svg" xmlns:xlink="http://www.w3.org/1999/xlink" xml:space="preserve" xmlns:serif="http://www.serif.com/" style="fill-rule:evenodd;clip-rule:evenodd;stroke-linecap:round;stroke-linejoin:round;stroke-miterlimit:1.5;"><g id="layer1"><circle cx="12.736" cy="1.15" r="4" style="fill:#c6d57a;"/><circle cx="4" cy="4" r="4" style="fill:#7c8c00;"/><g><path d="M2.058,-2.5l2.167,0l0,1.5l-1.834,-0l-0.333,-1.5Z" style="fill:#dadcd1;stroke:#060700;stroke-width:0.18px;"/><path d="M6.392,-2.5l-2.167,0l0,1.5l1.834,-0l0.333,-1.5Z" style="fill:#dadcd1;stroke:#060700;stroke-width:0.18px;"/></g><g><g><path d="M2.632,5.402l-0.626,-2.484l4.494,0l-0.599,2.484l-3.269,-0l-0.177,0.988l4.045,-0l-3.67,-0l-0.198,-0.988Zm-0.626,-2.484l-0.144,-0.55l-0.755,0l0.755,0l0.144,0.55Z" style="fill:#dadcd1;stroke:#060700;stroke-width:0.27px;"/><g><circle cx="2.634" cy="6.39" r="0.449" style="fill:#dadcd1;stroke:#060700;stroke-width:0.22px;"/><circle cx="2.634" cy="6.39" r="0.175" style="fill:#060700;"/></g><g><circle cx="5.551" cy="6.39" r="0.449" style="fill:#dadcd1;stroke:#060700;stroke-width:0.22px;"/><circle cx="5.551" cy="6.39" r="0.175" style="fill:#060700;"/></g></g><circle cx="1.068" cy="2.364" r="0.204" style="fill:#060700;"/></g><circle cx="-1" cy="6" r="0.5" style="fill:#dadcd1;"/><circle cx="9.318" cy="7.5" r="0.5" style="fill:#eda1ae;"/></g></svg>